<?xml version="1.0" encoding="UTF-8" standalone="no"?>
<!DOCTYPE svg PUBLIC "-//W3C//DTD SVG 1.1//EN" "http://www.w3.org/Graphics/SVG/1.1/DTD/svg11.dtd">
<svg width="100%" height="100%" viewBox="0 0 57 53" version="1.1" xmlns="http://www.w3.org/2000/svg" xmlns:xlink="http://www.w3.org/1999/xlink" xml:space="preserve" xmlns:serif="http://www.serif.com/" style="fill-rule:evenodd;clip-rule:evenodd;stroke-linejoin:round;stroke-miterlimit:2;">
    <g transform="matrix(1,0,0,1,-58.5574,-5.5)">
        <g transform="matrix(1,0,0,1,60.1574,0.9)">
            <g>
                <g>
                    <clipPath id="_clip1">
                        <path d="M47.5,17.6L25,4.8L25,57.4L34,52.2L34,37.4L40.8,41.3L40.7,31.2L34,27.3L34,21.4L47.5,29.3L47.5,17.6Z"/>
                    </clipPath>
                    <g clip-path="url(#_clip1)">
                        <rect x="-1.6" y="4.6" width="55.2" height="52.9" style="fill:url(#_Linear2);fill-rule:nonzero;"/>
                    </g>
                </g>
            </g>
        </g>
        <g transform="matrix(1,0,0,1,60.1574,0.9)">
            <g>
                <g>
                    <clipPath id="_clip3">
                        <path d="M0.5,17.6L23,4.8L23,57.4L14,52.2L14,21.4L0.5,29.3L0.5,17.6Z"/>
                    </clipPath>
                    <g clip-path="url(#_clip3)">
                        <g transform="matrix(1,0,0,1,1.9,0.05)">
                            <clipPath id="_clip4">
                                <rect x="-3.8" y="4.55" width="55.2" height="52.9"/>
                            </clipPath>
                            <g clip-path="url(#_clip4)">
                                <rect x="-1.9" y="4.6" width="55.2" height="52.9" style="fill:url(#_Linear5);fill-rule:nonzero;"/>
                            </g>
                        </g>
                    </g>
                </g>
            </g>
        </g>
    </g>
    <defs>
        <linearGradient id="_Linear2" x1="0" y1="0" x2="1" y2="0" gradientUnits="userSpaceOnUse" gradientTransform="matrix(55.2,0,0,55.2,-1.6,31.05)"><stop offset="0" style="stop-color:rgb(255,111,0);stop-opacity:1"/><stop offset="1" style="stop-color:rgb(255,168,0);stop-opacity:1"/></linearGradient>
        <linearGradient id="_Linear5" x1="0" y1="0" x2="1" y2="0" gradientUnits="userSpaceOnUse" gradientTransform="matrix(55.2,0,0,55.2,-1.9,31.05)"><stop offset="0" style="stop-color:rgb(255,111,0);stop-opacity:1"/><stop offset="1" style="stop-color:rgb(255,168,0);stop-opacity:1"/></linearGradient>
    </defs>
</svg>
